<svg enable-background="new 0 0 140 140" height="512" viewBox="0 0 140 140" width="512" xmlns="http://www.w3.org/2000/svg"><circle cx="70" cy="70" fill="#fed35b" r="64"/><path d="m69.9999924 133.9999237c32.1239624 0 58.7139359-23.6691895 63.2962112-54.5183105l-38.2796097-37.7329102-.0031738.0090332c-.7683105-1.0473633-1.9961548-1.7370605-3.3917236-1.7370605h-6.0535889l-.9536133-.9536133c-.0020142-.0024414-.0043945-.0041504-.0064087-.0063477l-.0147095-.0146484v.0031738c-.1904297-.208252-.4556274-.3491211-.7616577-.3684082-.6199951-.0302734-1.1600342.4299316-1.210022 1.0598145-.0499878.8200684-.0700073 1.6501465-.0800171 2.4699707v.25c-.0100098.7900391.0100098 1.5800781.0400391 2.3701172.2099609 4.6599121 1.0799561 9.2199707 2.3099976 13.4899902l-14.4938965-.8791504-10.4094238-10.4091797c-.3401489-.5551758-1.2060547-1.0395508-2.5167236-1.2216797-3.3099976-.4599609-5.7599487-.9101562-10-2.1401367 0 0-3.3999634-.6599121-4.7799683 2.3500977.0100098-.0500488.0100098-.1000977.0200195-.1499023-.2800293.5498047-.4800415 1.2399902-.5800171 2.0898438-.092041.8129883.1277466 1.4155273.5714111 1.8564453l-.0045776.0004883 10.0199585 10.0200195-3.7167969 7.1130371c-2.2299805-.9899902-4.6900024-1.5598145-7.289978-1.5598145-9.9200439 0-17.960022 8.0400391-17.960022 17.9599609 0 4.6359863 1.7711182 8.8496094 4.6543579 12.0380859l-.0172729.0112305.2993164.2993164c.2225342.2348633.4506836.4628906.6854858.6855469l37.5370483 37.5371094c1.024048.0485839 2.0532228.0778808 3.0893556.0778808z" opacity=".1"/><path d="m68.7377701 88.654213-30.5727844-3.2555085v-3.4854507l31.0711288-6.4148941.1537857.74086-30.4677849 6.2906799v2.1885757l29.895504 3.1830445z" fill="#344d5b"/><path d="m98.2807388 65.3946075c-9.9183731 0-17.9590759 8.0406113-17.9590759 17.9590759s8.0407028 17.9666595 17.9590759 17.9666595 17.9666595-8.0481949 17.9666595-17.9666595-8.0482864-17.9590759-17.9666595-17.9590759zm0 33.0669327c-8.3416672 0-15.1079025-6.7663345-15.1079025-15.1078568 0-8.341713 6.7662354-15.1078491 15.1079025-15.1078491s15.1079025 6.7661362 15.1079025 15.1078491c.0000001 8.3415223-6.7662353 15.1078568-15.1079025 15.1078568z" fill="#344d5b"/><path d="m98.2807388 67.3478775c-8.8356781 0-16.0057144 7.1701736-16.0057144 16.005806s7.1700363 16.0058136 16.0057144 16.0058136 16.005722-7.1701736 16.005722-16.0058136-7.1700362-16.005806-16.005722-16.005806zm0 30.5274887c-8.018013 0-14.5217285-6.5037994-14.5217285-14.5216827 0-8.0180588 6.5037155-14.5216827 14.5217285-14.5216827s14.5217285 6.503624 14.5217285 14.5216827c0 8.0178833-6.5037078 14.5216827-14.5217285 14.5216827z" fill="#ededed"/><path d="m113.830307 82.9904633h-13.723381l12.6787719-5.2516556-.2780151-.6713639-12.6787186 5.2518464 9.7038575-9.7040482-.513733-.5136871-9.7039032 9.703865 5.2517014-12.6785888-.6711731-.2780076-5.2517013 12.6785813v-13.7233277h-.7265397v13.7233277l-5.2517089-12.6785813-.6711731.2780076 5.2517089 12.6785888-9.7039108-9.703865-.5137329.5136871 9.7038574 9.7040482-12.6787185-5.2518464-.2780075.6713639 12.6787643 5.2516556h-13.7233734v.726448h13.7234192l-12.6788101 5.2516556.2780075.6713562 12.6787719-5.2518387-9.7039108 9.7040405.5137329.5136872 9.7039108-9.7038574-5.2517089 12.6785812.6711731.2780151 5.2517089-12.6785888v13.7233352h.7265397v-13.7233352l5.2517013 12.6785888.6711731-.2780151-5.2517014-12.6785812 9.7039032 9.7038574.513733-.5136872-9.7039032-9.7040405 12.6787643 5.2518387.2780151-.6713562-12.6788177-5.2516556h13.7234268z" fill="#ededed"/><path d="m98.2807617 79.3892059c-2.1895447 0-3.9644852 1.7748871-3.9644852 3.964386s1.7749405 3.9645767 3.9644852 3.9645767c2.1894989 0 3.9644394-1.7750778 3.9644394-3.9645767s-1.7749405-3.964386-3.9644394-3.964386z" fill="#344d5b"/><path d="m98.2807541 81.1042328c-1.2423553 0-2.2494583 1.0070724-2.2494583 2.2493973 0 1.2423325 1.007103 2.2495117 2.2494583 2.2495117 1.2423248 0 2.2494278-1.0071793 2.2494278-2.2495117 0-1.2423249-1.007103-2.2493973-2.2494278-2.2493973z" fill="#ededed"/><path d="m41.7116814 65.3946075c-9.9183712 0-17.9590778 8.0406113-17.9590778 17.9590759s8.0407066 17.9666595 17.9590778 17.9666595 17.9666557-8.0481949 17.9666557-17.9666595-8.0482864-17.9590759-17.9666557-17.9590759zm0 33.0669327c-8.3416672 0-15.1079044-6.7663345-15.1079044-15.1078568 0-8.341713 6.7662373-15.1078491 15.1079044-15.1078491s15.1079025 6.7661362 15.1079025 15.1078491c0 8.3415223-6.7662354 15.1078568-15.1079025 15.1078568z" fill="#344d5b"/><path d="m41.7116814 67.3478775c-8.8356819 0-16.0057182 7.1701736-16.0057182 16.005806s7.1700363 16.0058136 16.0057182 16.0058136 16.0057182-7.1701736 16.0057182-16.0058136-7.1700363-16.005806-16.0057182-16.005806zm0 30.5274887c-8.0180168 0-14.5217285-6.5037994-14.5217285-14.5216827 0-8.0180588 6.5037117-14.5216827 14.5217285-14.5216827s14.5217285 6.503624 14.5217285 14.5216827c0 8.0178833-6.5037117 14.5216827-14.5217285 14.5216827z" fill="#ededed"/><path d="m57.2612457 82.9904633h-13.723381l12.678772-5.2516556-.2780114-.6713639-12.6787223 5.2518464 9.7038574-9.7040482-.5137329-.5136871-9.7039032 9.703865 5.2517051-12.6785888-.6711769-.2780076-5.2517013 12.6785813v-13.7233277h-.7265396v13.7233277l-5.2517052-12.6785813-.6711731.2780076 5.2517052 12.6785888-9.7039051-9.703865-.513733.5136871 9.7038556 9.7040482-12.6787205-5.2518464-.2780094.6713639 12.6787681 5.2516556h-13.7233772v.726448h13.723423l-12.6788139 5.2516556.2780094.6713562 12.6787701-5.2518387-9.7039052 9.7040405.513733.5136872 9.7039051-9.7038574-5.2517052 12.6785812.6711731.2780151 5.2517052-12.6785888v13.7233352h.7265396v-13.7233352l5.2517013 12.6785888.6711769-.2780151-5.2517051-12.6785812 9.7039032 9.7038574.5137329-.5136872-9.7039032-9.7040405 12.6787681 5.2518387.2780114-.6713562-12.6788178-5.2516556h13.7234268z" fill="#ededed"/><path d="m41.7117043 79.3892059c-2.1895485 0-3.9644852 1.7748871-3.9644852 3.964386s1.7749367 3.9645767 3.9644852 3.9645767c2.1894989 0 3.9644356-1.7750778 3.9644356-3.9645767s-1.7749367-3.964386-3.9644356-3.964386z" fill="#344d5b"/><path d="m41.7116928 81.1042328c-1.2423515 0-2.2494545 1.0070724-2.2494545 2.2493973 0 1.2423325 1.007103 2.2495117 2.2494545 2.2495117 1.2423286 0 2.2494316-1.0071793 2.2494316-2.2495117 0-1.2423249-1.0071029-2.2493973-2.2494316-2.2493973z" fill="#ededed"/><path d="m98.2850189 84.4929657c-.3482437 0-.6928024-.1597137-.9153519-.4621201-.6624908-.9005661-16.211731-22.297596-14.7440567-44.2913055.0421448-.6269989.1627502 2.4678841.7867889 2.5026321.6262589.0421448 1.507576-2.9769936 1.4661713-2.3514748-.1099854 1.6473312-.103363 3.2961235-.0229263 4.9361725.9533997 19.4400826 14.1980209 37.6597633 14.3432541 37.856823.3719101.5057373.2639618 1.2162857-.2410355 1.5881958-.2033309.1493531-.4391937.221077-.6728439.221077z" fill="#de594e"/><path d="m84.8556442 44.82687c-.080368-1.6405067-.0794907-3.2887802.0305405-4.9364967.0414047-.6255188-.4318008-1.166748-1.0580597-1.2088928-.6240387-.0347481-1.166748.4310608-1.2088928 1.0580597-.1136322 1.7029839-.1189575 3.400795-.0433578 5.0873299h2.2797698z" fill="#344d5b"/><path d="m68.7126312 84.4929657-27.0008202-.0037003c-.397049 0-.7652626-.2077637-.97155-.547142-.2055511-.3401184-.2188606-.7623062-.0347519-1.1142502l13.4235115-25.7002449c.2062874-.397049.6299553-.6440048 1.0750656-.6077728l31.3380432 1.9046516c.4170151.0251389-.0402145.6509361.135025 1.0294991.175972.3785629.9563065.4485283.7063904.7834702l-17.7607344 23.7992897c-.2144242.2868804-.5515824.4561996-.9101792.4561996zm-25.1264839-2.2750855 24.5571556.0036926 16.1621857-21.6572876-28.5039826-1.732376z" fill="#de594e"/><path d="m68.7133636 84.4929657c-.4073944 0-.8014908-.2195969-1.0048218-.6055603l-13.577301-25.7039375-4.4111633-9.3339806c-.2676582-.5671082-.0251389-1.2436447.5419655-1.5120392.5678482-.2676582 1.2443848-.0251389 1.512043.5419693l4.3882408 9.2888756 13.5543862 25.6588402c.2927933.5545349.0813293 1.2414246-.4739456 1.5342178-.1685792.0894699-.3504716.1316147-.5294038.1316147z" fill="#de594e"/><path d="m91.6179962 48.4790573h-3.3057861c-.6269913 0-1.1356888-.5086975-1.1356888-1.1356964 0-.6269951.5086975-1.1356926 1.1356888-1.1356926h3.3057861c1.0780258 0 1.9556732-.8776474 1.9556732-1.9556694s-.8776474-1.9549294-1.9556732-1.9549294h-7.8589096c-.6269989 0-1.1356888-.5086975-1.1356888-1.1356964 0-.6269951.5086899-1.1356926 1.1356888-1.1356926h7.8589096c2.3305359 0 4.2270584 1.8957825 4.2270584 4.2263184 0 2.3305397-1.8965225 4.2270584-4.2270584 4.2270584z" fill="#344d5b"/><path d="m47.4699326 43.6694298s-4.7025414-.9270401-5.2986374 4.2867813 11.4583054 1.9168472 15.2998161 1.3034592c3.8415146-.6133919 3.3116493-2.990284 0-3.450325-3.3116455-.4600449-5.7622681-.9061776-10.0011787-2.1399155z" fill="#467082"/><path d="m57.4730339 49.2596588c-3.8462296.6131363-15.8997116 3.9067192-15.3015938-1.3022385.0984306-.8480721.3028679-1.5369949.583004-2.0898666-.0378952.2044373-.0757408.4166412-.0984306.643631-.5981636 5.2167244 11.4553642 1.9155617 15.294014 1.3022423.9615211-.1513901 1.6505356-.4164581 2.0821037-.7268143.446682.8404922-.2952881 1.8094559-2.5590973 2.1730461z" fill="#344d5b"/><path d="m68.774086 75.5016861c-3.7099457 0-6.7157288 3.0057831-6.7157288 6.7232132 0 3.7100449 3.0057831 6.7158279 6.7157288 6.7158279 3.7099533 0 6.7233124-3.0057831 6.7233124-6.7158279 0-3.7174301-3.0133591-6.7232132-6.7233124-6.7232132zm-3.7023697 8.3208389c-.8782501 0-1.5975304-.7192383-1.5975304-1.5976257 0-.8857803.7192802-1.605011 1.5975304-1.605011.8858261 0 1.6051102.7192307 1.6051102 1.605011 0 .8783874-.7192841 1.5976257-1.6051102 1.5976257zm3.7023697 3.7022782c-.8782959 0-1.5975266-.7192307-1.5975266-1.6050186 0-.8781967.7192307-1.5976181 1.5975266-1.5976181.8858337 0 1.6051102.7194214 1.6051102 1.5976181 0 .8857879-.7192765 1.6050186-1.6051102 1.6050186zm0-7.4045563c-.8782959 0-1.5975266-.7194214-1.5975266-1.5976257 0-.8857803.7192307-1.6050186 1.5975266-1.6050186.8858337 0 1.6051102.7192383 1.6051102 1.6050186 0 .8782043-.7192765 1.5976257-1.6051102 1.5976257zm3.7023773 3.7022781c-.8782959 0-1.59758-.7192383-1.59758-1.5976257 0-.8857803.7192841-1.605011 1.59758-1.605011.8858261 0 1.6051102.7192307 1.6051102 1.605011 0 .8783874-.7192841 1.5976257-1.6051102 1.5976257z" fill="#344d5b"/><path d="m68.7778549 80.9307938c-.7126236 0-1.2903595.5778275-1.2903595 1.290596 0 .7125778.5777359 1.2902222 1.2903595 1.2902222.712677 0 1.2904129-.5776443 1.2904129-1.2902222 0-.7127686-.5777359-1.290596-1.2904129-1.290596z" fill="#dbd8dd"/><path d="m68.7779007 81.7991562c-.288681 0-.5226974.2340164-.5226974.5227432v8.8615189c0 .2887268.2340164.5227432.5226974.5227432.2886353 0 .5226517-.2340164.5226517-.5227432v-8.8615189c0-.2887268-.2340165-.5227432-.5226517-.5227432z" fill="#ededed"/><path d="m71.1599197 90.7979736h-4.7640839c-.178833 0-.3237991.1449203-.3237991.3236618v.6591644c0 .1789246.1449661.3238449.3237991.3238449h4.7640839c.1788406 0 .3237991-.1449203.3237991-.3238449v-.6591644c.0000001-.1787414-.1449584-.3236618-.3237991-.3236618z" fill="#344d5b"/></svg>