<svg height="512pt" viewBox="-6 0 512 512" width="512pt" xmlns="http://www.w3.org/2000/svg"><path d="m64.515625 416.820312c-2.945313 3.261719-8.152344 3.109376-10.875-.34375-33.585937-42.609374-53.640625-96.386718-53.640625-154.855468 0-138.28125 112.097656-250.378906 250.378906-250.378906s250.378906 112.097656 250.378906 250.378906c0 58.46875-20.050781 112.246094-53.640624 154.855468-2.722657 3.453126-7.929688 3.605469-10.875.34375-45.820313-50.742187-112.113282-82.640624-185.863282-82.640624s-140.042968 31.898437-185.863281 82.640624zm0 0" fill="#0ab59e"/><path d="m447.078125 19.5625v396.984375c-45.851563 58.132813-116.914063 95.453125-196.699219 95.453125s-150.847656-37.320312-196.699218-95.453125v-396.984375c0-10.804688 8.757812-19.5625 19.5625-19.5625h354.273437c10.804687 0 19.5625 8.757812 19.5625 19.5625zm0 0" fill="#ade8f0"/><path d="m427.515625 0h-325.910156c-10.804688 0-19.5625 8.757812-19.5625 19.5625v87.695312c0 5.746094 4.65625 10.402344 10.402343 10.402344h329.203126c2.703124 0 4.890624 2.191406 4.890624 4.890625v8.863281c0 2.703126-2.1875 4.890626-4.890624 4.890626h-329.203126c-5.742187 0-10.402343 4.65625-10.402343 10.402343v300.261719c44.464843 40.40625 103.523437 65.03125 168.335937 65.03125 79.785156 0 150.847656-37.320312 196.699219-95.453125v-396.984375c0-10.804688-8.757813-19.5625-19.5625-19.5625zm-177.136719 482.121094c-83.964844 0-152.035156-68.070313-152.035156-152.035156 0-83.96875 68.066406-152.039063 152.035156-152.039063s152.035156 68.070313 152.035156 152.039063c0 83.964843-68.066406 152.035156-152.035156 152.035156zm0 0" fill="#d3f1f5"/><path d="m308.816406 35.9375c13.367188 13.367188 13.367188 35.042969 0 48.410156-13.367187 13.371094-35.042968 13.371094-48.410156 0-13.371094-13.367187-13.371094-35.039062 0-48.410156 13.367188-13.367188 35.042969-13.367188 48.410156 0zm88.023438 0c-13.367188-13.367188-35.042969-13.367188-48.410156 0-13.367188 13.367188-13.367188 35.042969 0 48.410156 13.367187 13.371094 35.042968 13.371094 48.410156 0 13.367187-13.367187 13.367187-35.042968 0-48.410156zm0 0" fill="#6caac9"/><path d="m402.746094 43.863281-46.394532 46.394531c-2.84375-1.539062-5.519531-3.503906-7.921874-5.910156-2.40625-2.402344-4.367188-5.078125-5.910157-7.921875l46.394531-46.394531c2.84375 1.539062 5.519532 3.503906 7.925782 5.90625 2.402344 2.40625 4.367187 5.082031 5.90625 7.925781zm-101.855469-13.832031-46.394531 46.394531c1.539062 2.84375 3.503906 5.519531 5.910156 7.921875 2.402344 2.40625 5.078125 4.371094 7.921875 5.910156l46.398437-46.394531c-1.539062-2.84375-3.503906-5.519531-5.910156-7.925781-2.40625-2.402344-5.078125-4.367188-7.925781-5.90625zm0 0" fill="#017296"/><path d="m123.4375 342.429688c-.539062-5.617188-.71875-11.335938-.503906-17.140626 2.457031-66.425781 56.457031-120.199218 122.894531-122.355468 72.199219-2.347656 131.460937 55.480468 131.460937 127.152344 0 6.519531-.492187 12.925781-1.4375 19.183593h-244.902343c-3.894531-.003906-7.136719-2.964843-7.511719-6.839843zm0 0" fill="#3691bb"/><path d="m247.402344 202.890625c9.644531-.199219 19.050781.679687 28.109375 2.519531-58.070313 11.789063-101.777344 63.125-101.777344 124.675782 0 6.519531.496094 12.925781 1.441406 19.183593h-44.226562c-3.894531 0-7.136719-2.964843-7.511719-6.839843-.535156-5.582032-.714844-11.269532-.507812-17.039063 2.425781-67.070313 57.371093-121.125 124.472656-122.5zm-138.839844-108.515625h97.804688c8.101562 0 14.667968-6.566406 14.667968-14.667969v-39.125c0-8.101562-6.566406-14.671875-14.667968-14.671875h-97.804688c-8.101562 0-14.671875 6.570313-14.671875 14.671875v39.121094c0 8.101563 6.570313 14.671875 14.671875 14.671875zm0 0" fill="#017296"/><path d="m205.707031 94.375h-76.925781c-8.464844 0-15.328125-6.863281-15.328125-15.328125v-37.804687c0-8.464844 6.863281-15.328126 15.328125-15.328126h76.925781c8.46875 0 15.332031 6.863282 15.332031 15.328126v37.804687c0 8.464844-6.863281 15.328125-15.332031 15.328125zm0 0" fill="#3691bb"/><path d="m152.574219 40.582031v19.5625c0 2.699219-2.1875 4.890625-4.890625 4.890625-2.699219 0-4.890625-2.191406-4.890625-4.890625v-19.5625c0-2.699219 2.191406-4.890625 4.890625-4.890625 2.703125 0 4.890625 2.191406 4.890625 4.890625zm14.671875 34.230469c-2.703125 0-4.890625 2.191406-4.890625 4.890625 0 2.703125 2.1875 4.890625 4.890625 4.890625 2.699218 0 4.890625-2.1875 4.890625-4.890625 0-2.699219-2.191407-4.890625-4.890625-4.890625zm-39.121094-39.121094c-2.703125 0-4.890625 2.191406-4.890625 4.890625v19.5625c0 2.699219 2.1875 4.890625 4.890625 4.890625 2.699219 0 4.890625-2.191406 4.890625-4.890625v-19.5625c0-2.699219-2.191406-4.890625-4.890625-4.890625zm39.121094 19.5625c-2.703125 0-4.890625 2.1875-4.890625 4.890625 0 2.699219 2.1875 4.886719 4.890625 4.886719 2.699218 0 4.890625-2.1875 4.890625-4.886719 0-2.703125-2.191407-4.890625-4.890625-4.890625zm39.121094 19.558594c-2.699219 0-4.890626 2.191406-4.890626 4.890625 0 2.703125 2.191407 4.890625 4.890626 4.890625 2.703124 0 4.890624-2.1875 4.890624-4.890625 0-2.699219-2.191406-4.890625-4.890624-4.890625zm-39.121094-39.121094c-2.703125 0-4.890625 2.191406-4.890625 4.890625 0 2.703125 2.1875 4.890625 4.890625 4.890625 2.699218 0 4.890625-2.1875 4.890625-4.890625 0-2.699219-2.191407-4.890625-4.890625-4.890625zm19.558594 0c-2.699219 0-4.886719 2.191406-4.886719 4.890625v19.5625c0 2.699219 2.1875 4.890625 4.886719 4.890625 2.703124 0 4.890624-2.191406 4.890624-4.890625v-19.5625c0-2.699219-2.1875-4.890625-4.890624-4.890625zm19.5625 0c-2.699219 0-4.890626 2.191406-4.890626 4.890625v19.5625c0 2.699219 2.191407 4.890625 4.890626 4.890625 2.703124 0 4.890624-2.191406 4.890624-4.890625v-19.5625c0-2.699219-2.191406-4.890625-4.890624-4.890625zm-19.5625 39.121094c-2.699219 0-4.886719 2.191406-4.886719 4.890625 0 2.703125 2.1875 4.890625 4.886719 4.890625 2.703124 0 4.890624-2.1875 4.890624-4.890625 0-2.699219-2.1875-4.890625-4.890624-4.890625zm0 0" fill="#5de0c3"/><path d="m340.683594 318.519531h36.074218c.34375 3.808594.53125 7.664063.53125 11.5625 0 70.265625-56.957031 127.222657-127.222656 127.222657-66.363281 0-120.847656-50.816407-126.691406-115.65625h33.765625c26.402344 0 52.730469-2.890626 78.503906-8.617188l26.53125-5.894531c25.777344-5.726563 52.101563-8.617188 78.507813-8.617188zm0 0" fill="#cd9e00"/><path d="m377.289062 330.082031c0 61.550781-43.707031 112.886719-101.777343 124.675781-54.523438-11.070312-96.378907-57.003906-101.289063-113.519531 20.660156-.976562 41.210938-3.714843 61.421875-8.207031l26.53125-5.894531c25.773438-5.730469 52.101563-8.621094 78.503907-8.621094h36.078124c.347657 3.8125.53125 7.667969.53125 11.566406zm0 0" fill="#f5c02c"/><path d="m347.21875 283.820312h24.269531c2.292969 0 4.332031 1.449219 5.097657 3.605469 4.746093 13.335938 7.335937 27.695313 7.335937 42.660157 0 14.960937-2.589844 29.320312-7.335937 42.65625-.765626 2.160156-2.804688 3.605468-5.097657 3.605468h-24.269531c-12.773438 0-23.132812-10.355468-23.132812-23.132812v-46.261719c0-12.777344 10.355468-23.132813 23.132812-23.132813zm0 0" fill="#d3f1f5"/><path d="m363.875 376.347656h-16.65625c-12.773438 0-23.132812-10.359375-23.132812-23.132812v-46.261719c0-12.773437 10.359374-23.128906 23.132812-23.128906h16.65625c-12.777344 0-23.132812 10.355469-23.132812 23.128906v46.261719c0 12.773437 10.355468 23.132812 23.132812 23.132812zm0 0" fill="#ade8f0"/></svg>