<?xml version="1.0" encoding="iso-8859-1"?>
<!-- Generator: Adobe Illustrator 19.0.0, SVG Export Plug-In . SVG Version: 6.00 Build 0)  -->
<svg version="1.1" id="Capa_1" xmlns="http://www.w3.org/2000/svg" xmlns:xlink="http://www.w3.org/1999/xlink" x="0px" y="0px"
	 viewBox="0 0 512 512" style="enable-background:new 0 0 512 512;" xml:space="preserve">
<path style="fill:#87E0EC;" d="M512,256c0,141.385-114.615,256-256,256S0,397.385,0,256S114.615,0,256,0S512,114.615,512,256z"/>
<path style="fill:#AFEAF2;" d="M220,105c0,8.284-6.716,15-15,15H39.094c6.624-10.542,13.992-20.566,22.036-30H180
	c5.523,0,10-4.477,10-10s-4.477-10-10-10h-25c-8.284,0-15-6.716-15-15s6.716-15,15-15h130c8.284,0,15,6.716,15,15s-6.716,15-15,15
	h-75c-5.523,0-10,4.477-10,10s4.477,10,10,10h-5C213.284,90,220,96.716,220,105L220,105z M40,210h25c8.284,0,15-6.716,15-15
	s-6.716-15-15-15H11.472C4.017,204.012,0,229.537,0,256c0,1.337,0.03,2.667,0.051,4H65c8.284,0,15-6.716,15-15l0,0
	c0-8.284-6.716-15-15-15H40c-5.523,0-10-4.477-10-10S34.477,210,40,210z M430,280h25c8.284,0,15-6.716,15-15s-6.716-15-15-15H325
	c-8.284,0-15,6.716-15,15s6.716,15,15,15h25c5.523,0,10,4.477,10,10s-4.477,10-10,10H235c-8.284,0-15,6.716-15,15l0,0
	c0,8.284,6.716,15,15,15h220c8.284,0,15-6.716,15-15l0,0c0-8.284-6.716-15-15-15h-25c-5.523,0-10-4.477-10-10S424.477,280,430,280z
	 M450,215c0,8.284,6.716,15,15,15h45.694c-1.028-10.19-2.667-20.198-4.854-30H465C456.716,200,450,206.716,450,215z M135,160
	c-8.284,0-15,6.716-15,15s6.716,15,15,15h45.694c-1.028-10.19-2.667-20.198-4.854-30H135z M325,160h168.372
	c-12.099-29.886-29.668-56.969-51.48-80H415c-8.284,0-15,6.716-15,15s6.716,15,15,15h25c5.523,0,10,4.477,10,10s-4.477,10-10,10H325
	c-8.284,0-15,6.716-15,15l0,0C310,153.284,316.716,160,325,160z"/>
<path style="fill:#EBAE56;" d="M257.732,11l209.449,362.775H44.819L254.268,11C255.038,9.667,256.962,9.667,257.732,11z"/>
<path style="fill:#D09247;" d="M410,363.814L384.704,320H100v-10h278.93l-23.094-40H110v-10h240.063l-23.094-40H150v-10h171.195
	l-23.094-40H170v-10h122.328L227.41,47.558l26.858-46.52c0.77-1.333,2.694-1.333,3.464,0l209.449,362.775H410V363.814z"/>
<path style="fill:#945B44;" d="M432.261,363.814h34.919L257.732,1.038c-0.77-1.333-2.694-1.333-3.464,0L44.819,363.814h34.919
	L214.731,130h82.537L432.261,363.814z M226.278,110L256,58.521L285.722,110H226.278z"/>
<path style="fill:#F8BB5E;" d="M301,195v175h-90V195c0-2.761,2.239-5,5-5h80C298.761,190,301,192.239,301,195z"/>
<path style="fill:#AC6A51;" d="M292,370h-72V200h72V370z"/>
<path style="fill:#945B44;" d="M230,370h-10V200h10V370z"/>
<path style="fill:#D09247;" d="M482,365v20c0,2.761-2.239,5-5,5h-86v50h-40v-50H161v50h-40v-50H35c-2.761,0-5-2.239-5-5v-20
	c0-2.761,2.239-5,5-5h442C479.761,360,482,362.239,482,365z"/>
<path style="fill:#DCA050;" d="M482,365v20c0,2.761-2.239,5-5,5h-86v50h-40v-50H161v50h-40v-50H35c-2.761,0-5-2.239-5-5v-20
	c0-2.761,2.239-5,5-5h442C479.761,360,482,362.239,482,365z"/>
<path style="fill:#D09247;" d="M60,365v20c0,2.761,2.239,5,5,5H35c-2.761,0-5-2.239-5-5v-20c0-2.761,2.239-5,5-5h30
	C62.239,360,60,362.239,60,365z M121,440h30v-50h-30V440z M351,390v50h30v-50H351z"/>
<path style="fill:#6D4336;" d="M301,270v10h-25c-2.761,0-5-2.239-5-5s2.239-5,5-5H301z"/>
<path style="fill:#BFB617;" d="M460.505,410C413.781,471.948,339.571,512,256,512S98.219,471.948,51.495,410h98.054l27.958-67.482
	c0.881-2.127,4.067-1.326,3.838,0.965l-6.535,65.347l22.009-15.925c1.645-1.19,3.812,0.545,3.01,2.411L193.511,410H460.505z"/>
<path style="fill:#D0C731;" d="M399.535,468c-40.937,27.771-90.34,44-143.535,44s-102.597-16.229-143.535-44h174.563l-6.856-15.939
	c-0.802-1.865,1.364-3.601,3.01-2.411l24.125,17.456l1.046-57.452c0.041-2.248,3.186-2.729,3.897-0.596l15.464,46.41l22.766-54.951
	c0.881-2.127,4.067-1.326,3.838,0.965l-6.535,65.347l22.009-15.925c1.645-1.19,3.812,0.545,3.01,2.411L366.486,468H399.535z"/>
<g>
</g>
<g>
</g>
<g>
</g>
<g>
</g>
<g>
</g>
<g>
</g>
<g>
</g>
<g>
</g>
<g>
</g>
<g>
</g>
<g>
</g>
<g>
</g>
<g>
</g>
<g>
</g>
<g>
</g>
</svg>
